<svg width="69" height="85" viewBox="0 0 69 85" fill="none" xmlns="http://www.w3.org/2000/svg">
<path d="M31.5 53L33.0969 52.7719C34.3592 52.5915 35.6408 52.5915 36.9031 52.7719C37.9639 52.9234 39.0028 53.2011 39.9977 53.5991L40.2142 53.6857C40.7372 53.8949 41.2427 54.1456 41.7258 54.4355L42.2203 54.7322C43.0654 55.2392 43.8041 55.9055 44.3954 56.6939C44.7967 57.229 45.1258 57.8146 45.3742 58.4356L46 60L46.1756 60.7023C46.3879 61.5514 46.8269 62.3269 47.4459 62.9459C47.8129 63.3129 48.2367 63.6183 48.701 63.8505L49.3909 64.1954C49.7965 64.3982 50.2159 64.572 50.6461 64.7154L52.0067 65.1689C52.6669 65.389 53.3011 65.6806 53.8978 66.0387C54.9559 66.6735 55.8807 67.5076 56.6211 68.4948L57 69L57.5767 69.9611C58.1861 70.9768 58.5863 72.104 58.7538 73.2766C58.9164 74.4147 58.8566 75.5736 58.5778 76.6889L58.2165 78.1342C58.0726 78.7097 57.8662 79.2677 57.6009 79.7982C56.883 81.2339 55.7563 82.425 54.3627 83.2213L54.2213 83.3021C53.4124 83.7643 52.5343 84.0931 51.6207 84.2759L50.7026 84.4595C48.917 84.8166 47.0799 84.8327 45.2884 84.507L42.5 84C39.8498 83.3374 37.3202 82.2626 35.0036 80.8148L34.5 80.5L33.3771 79.7514C33.1268 79.5845 32.8554 79.4518 32.5701 79.3567L32.4772 79.3257C31.8429 79.1143 31.1571 79.1143 30.5228 79.3257C30.177 79.441 29.8543 79.6166 29.5697 79.8443L27.4693 81.5245C25.836 82.8312 23.9843 83.8386 22 84.5L21.498 84.6004C20.1693 84.8661 18.8175 85 17.4624 85H17.0768C16.3598 85 15.6438 84.9491 14.934 84.8477L14.1602 84.7372C13.0606 84.5801 11.9935 84.2468 11 83.75L10.617 83.5585C9.87717 83.1886 9.20182 82.7018 8.61694 82.1169C7.88 81.38 7.30042 80.501 6.91336 79.5334L6.79791 79.2448C6.59972 78.7493 6.44734 78.2367 6.34269 77.7134C6.11647 76.5823 6.11647 75.4177 6.34269 74.2866L6.5 73.5L7.17225 71.4832C7.38978 70.8307 7.69334 70.21 8.07491 69.6376C8.35761 69.2136 8.68151 68.8185 9.04189 68.4581L9.37325 68.1267C9.79056 67.7094 10.237 67.3223 10.7091 66.9682L10.8815 66.8389C11.6257 66.2807 12.4185 65.7907 13.2505 65.3748L14 65L16.5 64C17.8293 63.6677 19.1183 63.1908 20.3439 62.578L20.5 62.5C21.4902 61.8399 22.3399 60.9902 23 60L24 58L24.4755 57.2868C24.8243 56.7636 25.224 56.276 25.6687 55.8313C26.2208 55.2792 26.8386 54.7969 27.5081 54.3951L27.5386 54.3768C28.5057 53.7966 29.5653 53.3869 30.6712 53.1658L31.5 53Z" fill="black"/>
<path d="M18.7561 34.6342L19.2175 35.3262C19.7354 36.1031 20.3816 36.7862 21.1286 37.3464C21.707 37.7803 22.34 38.136 23.0114 38.4045L23.4524 38.581C24.1488 38.8595 24.8731 39.0622 25.6129 39.1855L26.5517 39.3419C27.1787 39.4464 27.8194 39.4361 28.4427 39.3115C29.4581 39.1084 30.3907 38.6093 31.123 37.877L31.7252 37.2748C32.573 36.427 33.335 35.4976 34 34.5C34.6637 33.1726 35.1475 31.7626 35.4385 30.3074L35.5 30L35.7534 28.4796C35.9175 27.4949 36 26.4983 36 25.5C36 24.5017 35.9175 23.5051 35.7534 22.5204L35.4427 20.6559C35.1484 18.8905 34.6647 17.1618 34 15.5C33.3347 14.1694 32.551 12.9013 31.6584 11.7111L31.5 11.5L29.5 8.5C29.1685 7.83706 28.938 7.12828 28.8162 6.39718L28.6714 5.52865C28.5573 4.84393 28.3897 4.16921 28.1702 3.51068L28 3L27.9712 2.88481C27.7638 2.05531 26.7308 1.76918 26.1262 2.37378C26.0426 2.45738 25.973 2.55391 25.9202 2.65966L25.7017 3.0965C25.5677 3.36469 25.4633 3.64676 25.3906 3.93766L25 5.5L24.5 7L24.3518 7.37041C23.7864 8.78398 23.0373 10.1169 22.1238 11.3349L20 14L19.065 15.309C18.0254 16.7644 17.1643 18.3393 16.5 20L16.139 21.4441C15.7166 23.1334 15.6108 24.8863 15.8268 26.6142C15.942 27.5358 16.1479 28.4438 16.4416 29.3249L17 31L17.4938 32.2344C17.8303 33.0759 18.2534 33.8801 18.7561 34.6342Z" fill="black"/>
<path d="M48.1584 38.7683L47.5574 38.8885C47.1867 38.9627 46.8096 39 46.4316 39H46.3663C45.7925 39 45.2225 38.9075 44.6782 38.7261C44.2281 38.576 43.8 38.3666 43.4052 38.1035L43.1376 37.9251C42.7136 37.6424 42.3185 37.3185 41.9581 36.9581L41.5419 36.5419C41.1815 36.1815 40.8576 35.7864 40.5749 35.3624C40.1933 34.79 39.8898 34.1693 39.6723 33.5168L39.4024 32.7072C39.1347 31.904 38.9398 31.0784 38.82 30.2403L38.7204 29.5427C38.5736 28.5155 38.5 27.4792 38.5 26.4417V24.4829C38.5 22.8305 38.6365 21.1808 38.9082 19.5509L39 19L39.5 17C39.8323 15.6707 40.3092 14.3817 40.922 13.1561L42.3445 10.311C42.7796 9.44088 43.0967 8.51665 43.2875 7.56273L43.3885 7.05739C43.4627 6.6867 43.5 6.3096 43.5 5.93157V5.79057C43.5 5.26695 43.4156 4.74675 43.25 4.25L43.1932 4.07971C43.0652 3.69575 43 3.29366 43 2.88893V2.46353C43 2.1587 43.071 1.85806 43.2073 1.58541C43.3973 1.20541 43.7054 0.897293 44.0854 0.707295L44.1753 0.662349C44.3888 0.555584 44.6243 0.5 44.863 0.5C45.2709 0.5 45.662 0.662017 45.9504 0.95041L46.3071 1.30707C46.4354 1.43538 46.5507 1.57604 46.6513 1.72702L48.5 4.5C49.165 5.49756 49.927 6.42699 50.7748 7.27476L53.3821 9.88213C53.7935 10.2935 54.1752 10.7336 54.5243 11.199C55.1719 12.0626 55.7031 13.0077 56.104 14.0099L56.5 15L57 17L57.194 17.9701C57.3975 18.9875 57.5 20.0226 57.5 21.0602C57.5 22.3486 57.342 23.632 57.0295 24.8818L57 25L56.5 27.5L55.5 30.5L54.5 33L53.8524 34.2952C53.618 34.7641 53.3418 35.211 53.0272 35.6304L52.9284 35.7622C52.3153 36.5796 51.5494 37.2704 50.6732 37.7961C49.8969 38.2619 49.0462 38.5908 48.1584 38.7683Z" fill="black"/>
<path d="M61.5854 32.7073L61.6753 32.6623C61.8888 32.5556 62.1243 32.5 62.363 32.5C62.7709 32.5 63.162 32.662 63.4504 32.9504L63.8071 33.3071C63.9354 33.4354 64.0507 33.576 64.1514 33.727L65 35C65.6649 35.9973 66.2244 37.061 66.6695 38.1738L67 39L67.0501 39.1502C67.6805 41.0414 68.0519 43.0092 68.1544 45L68.0795 46.94C68.0266 48.3097 67.8324 49.6702 67.5 51L67 53L66.6695 53.8262C66.2244 54.939 65.6649 56.0027 65 57L64.4459 57.8311C64.1494 58.276 63.8096 58.6904 63.4316 59.0684C62.8146 59.6854 62.0934 60.2033 61.313 60.5935C60.7766 60.8617 60.2065 61.0734 59.6247 61.2188L59.5462 61.2384C58.8514 61.4122 58.1378 61.5 57.4216 61.5C56.48 61.5 55.5446 61.3482 54.6514 61.0505L53.7504 60.7501C53.2524 60.5841 52.7787 60.3524 52.3418 60.0612C51.7847 59.6898 51.2947 59.2263 50.8929 58.6906L50.5173 58.1897C50.1731 57.7308 49.871 57.2419 49.6144 56.7289L49.5976 56.6952C49.201 55.902 48.9119 55.0593 48.7379 54.1896L48.7125 54.0627C48.5712 53.356 48.5 52.637 48.5 51.9162V51.75C48.5 50.9187 48.5821 50.0894 48.7451 49.2743L49 48L49.113 47.5479C49.3696 46.5216 49.7766 45.539 50.3209 44.6319C50.7719 43.8801 51.3135 43.1865 51.9334 42.5666L52.5 42L55 40C56.6616 38.6708 58.1708 37.1616 59.5 35.5L60.5 34L60.7073 33.5854C60.8973 33.2054 61.2054 32.8973 61.5854 32.7073Z" fill="black"/>
<path d="M3.5 36L4.42616 34.6232C4.80717 34.0568 5.2587 33.5411 5.76988 33.0887L6.70602 32.2602C6.90001 32.0885 7.12668 31.9578 7.37244 31.8759C8.06348 31.6455 8.82536 31.8254 9.34044 32.3404L9.5 32.5C9.83117 32.8312 10.1068 33.2136 10.3162 33.6325L10.5 34L11.5 35.5L11.7272 35.8029C12.5747 36.9329 13.5013 38.0013 14.5 39L17.9946 42.4946C18.6605 43.1605 19.2147 43.9294 19.6358 44.7717C19.8781 45.2562 20.0749 45.7621 20.2237 46.283L20.3989 46.8961C20.7977 48.2919 21 49.7364 21 51.1881V52.4102C21 53.134 20.9112 53.8551 20.7357 54.5573L20.7188 54.6247C20.5734 55.2065 20.3647 55.7706 20.0965 56.307C19.7014 57.0972 19.1815 57.8185 18.5569 58.4431L18.4568 58.5432C18.1527 58.8473 17.8273 59.1295 17.4831 59.3876L17.2715 59.5464C16.4275 60.1794 15.5039 60.6985 14.5244 61.0903C13.8429 61.3628 13.1379 61.5724 12.4182 61.7164L12.1148 61.777C11.3734 61.9253 10.6192 62 9.86314 62H8.79057C8.26695 62 7.74675 61.9156 7.25 61.75C6.75325 61.5844 6.28644 61.3398 5.86754 61.0257L5.10912 60.4568C4.70355 60.1527 4.32008 59.8201 3.96161 59.4616L2.94315 58.4431C2.31847 57.8185 1.79858 57.0972 1.4035 56.307C1.13531 55.7706 0.92662 55.2065 0.781171 54.6247L0.5 53.5L0.214223 51.4996C0.0715874 50.5011 0 49.4938 0 48.4852C0 46.5047 0.276022 44.5339 0.820102 42.6296L1 42L1.32579 41.0226C1.7747 39.6759 2.31862 38.3628 2.95347 37.0931L3.5 36Z" fill="black"/>
</svg>
